<svg id="search_1_" xmlns="http://www.w3.org/2000/svg" width="20" height="20" viewBox="0 0 20 20">
  <path id="Path_2196" data-name="Path 2196" d="M66.941,17.584a8.75,8.75,0,1,0-8.747-8.75A8.748,8.748,0,0,0,66.941,17.584Zm0-15a6.25,6.25,0,1,1-6.248,6.25A6.249,6.249,0,0,1,66.941,2.584Z" transform="translate(-58.194 -0.084)" fill="#1e5c95"/>
  <path id="Path_2197" data-name="Path 2197" d="M5.975,304.46a1.25,1.25,0,0,0,.894-2.13l-.007-.007-4.7-4.7A1.277,1.277,0,0,0,.39,299.46l4.7,4.637a1.249,1.249,0,0,0,.887.363Z" transform="translate(12.768 -284.46)" fill="#1e5c95"/>
</svg>
